# xmcd CD database file
#
# Track frame offsets:
#	150
#	22105
#	39488
#	58489
#	77309
#	94923
#	115070
#	135010
#	154895
#	172476
#	205231
#	226341
#	245248
#	264933
#	284708
#	303468
#	324513
#	342144
#
# Disc length: 4794 seconds
#
# Revision: 0
# Processed by: cddbd v1.5.2PL0 Copyright (c) Steve Scherf et al.
# Submitted via: Feurio! 1.68 - http://www.feurio.com
#
DISCID=0512b812
DTITLE=Robbie Williams - Greatest Hits MTV History CD2
DYEAR=1900
DGENRE=
TTITLE0=Something Beautiful
TTITLE1=Old Before I Die
TTITLE2=Beyond The Sea
TTITLE3=Love Somebody
TTITLE4=Lazy Days
TTITLE5=It Was A Very Good Year
TTITLE6=Feel
TTITLE7=Let Me Entertain You
TTITLE8=Will Did You Even
TTITLE9=Me And My Monkey
TTITLE10=Strong
TTITLE11=Hot Fudge
TTITLE12=She´s The One
TTITLE13=Sexed Up
TTITLE14=Let Love Be Your Enerhy
TTITLE15=Come Undone
TTITLE16=Radio
TTITLE17=Man´s Song
EXTD=
EXTT0=
EXTT1=
EXTT2=
EXTT3=
EXTT4=
EXTT5=
EXTT6=
EXTT7=
EXTT8=
EXTT9=
EXTT10=
EXTT11=
EXTT12=
EXTT13=
EXTT14=
EXTT15=
EXTT16=
EXTT17=
PLAYORDER=
